<svg xmlns="http://www.w3.org/2000/svg" xmlns:xlink="http://www.w3.org/1999/xlink" width="120" zoomAndPan="magnify" viewBox="0 0 90 30.000001" height="40" preserveAspectRatio="xMidYMid meet" version="1.0"><defs><g/></defs><g fill="#ffffff" fill-opacity="1"><g transform="translate(1.780492, 20.685486)"><g><path d="M 9.71875 3.046875 C 8.644531 3.046875 7.75 2.785156 7.03125 2.265625 C 6.320312 1.742188 5.847656 1.019531 5.609375 0.09375 C 4.671875 -0.03125 3.851562 -0.34375 3.15625 -0.84375 C 2.46875 -1.34375 1.929688 -2.03125 1.546875 -2.90625 C 1.160156 -3.789062 0.96875 -4.859375 0.96875 -6.109375 C 0.96875 -7.515625 1.207031 -8.6875 1.6875 -9.625 C 2.175781 -10.5625 2.847656 -11.257812 3.703125 -11.71875 C 4.554688 -12.175781 5.546875 -12.40625 6.671875 -12.40625 C 7.785156 -12.40625 8.769531 -12.175781 9.625 -11.71875 C 10.476562 -11.257812 11.144531 -10.5625 11.625 -9.625 C 12.101562 -8.6875 12.34375 -7.515625 12.34375 -6.109375 C 12.34375 -4.285156 11.953125 -2.882812 11.171875 -1.90625 C 10.390625 -0.925781 9.289062 -0.316406 7.875 -0.078125 L 7.828125 0.09375 C 8.003906 0.382812 8.265625 0.609375 8.609375 0.765625 C 8.953125 0.929688 9.351562 1.015625 9.8125 1.015625 C 10.175781 1.015625 10.503906 0.96875 10.796875 0.875 L 10.96875 0.90625 L 11.3125 2.796875 C 11.132812 2.859375 10.894531 2.914062 10.59375 2.96875 C 10.289062 3.019531 10 3.046875 9.71875 3.046875 Z M 6.671875 -1.921875 C 7.703125 -1.921875 8.488281 -2.253906 9.03125 -2.921875 C 9.582031 -3.585938 9.859375 -4.648438 9.859375 -6.109375 C 9.859375 -7.566406 9.582031 -8.628906 9.03125 -9.296875 C 8.488281 -9.972656 7.703125 -10.3125 6.671875 -10.3125 C 5.617188 -10.3125 4.816406 -9.972656 4.265625 -9.296875 C 3.722656 -8.628906 3.453125 -7.566406 3.453125 -6.109375 C 3.453125 -4.648438 3.722656 -3.585938 4.265625 -2.921875 C 4.816406 -2.253906 5.617188 -1.921875 6.671875 -1.921875 Z M 6.671875 -1.921875 "/></g></g></g><g fill="#ffffff" fill-opacity="1"><g transform="translate(15.100474, 20.685486)"><g><path d="M 6.484375 0.171875 C 4.796875 0.171875 3.546875 -0.222656 2.734375 -1.015625 C 1.921875 -1.816406 1.515625 -3.003906 1.515625 -4.578125 L 1.515625 -12.21875 L 3.875 -12.21875 L 3.875 -4.59375 C 3.875 -3.707031 4.085938 -3.039062 4.515625 -2.59375 C 4.953125 -2.144531 5.609375 -1.921875 6.484375 -1.921875 C 8.210938 -1.921875 9.078125 -2.8125 9.078125 -4.59375 L 9.078125 -12.21875 L 11.453125 -12.21875 L 11.453125 -4.578125 C 11.453125 -3.003906 11.039062 -1.816406 10.21875 -1.015625 C 9.40625 -0.222656 8.160156 0.171875 6.484375 0.171875 Z M 6.484375 0.171875 "/></g></g></g><g fill="#ffffff" fill-opacity="1"><g transform="translate(28.060907, 20.685486)"><g><path d="M 4 0 L 1.59375 0 L 1.59375 -12.21875 L 4 -12.21875 Z M 4 0 "/></g></g></g><g fill="#ffffff" fill-opacity="1"><g transform="translate(33.663159, 20.685486)"><g><path d="M 9.46875 0 L 0.5 0 L 0.5 -2.125 L 6.625 -10.03125 L 6.578125 -10.203125 L 0.75 -10.203125 L 0.75 -12.21875 L 9.421875 -12.21875 L 9.421875 -10.09375 L 3.28125 -2.203125 L 3.34375 -2.03125 L 9.46875 -2.03125 Z M 9.46875 0 "/></g></g></g><g fill="#5386e4" fill-opacity="1"><g transform="translate(43.650452, 20.685486)"><g><path d="M 3.9375 0 L 1.59375 0 L 1.59375 -12.21875 L 4.359375 -12.21875 L 9.265625 -4.34375 L 9.484375 -4.375 L 9.484375 -12.21875 L 11.8125 -12.21875 L 11.8125 0 L 9.328125 0 L 4.140625 -8.40625 L 3.9375 -8.375 Z M 3.9375 0 "/></g></g></g><g fill="#5386e4" fill-opacity="1"><g transform="translate(57.054049, 20.685486)"><g><path d="M 4 -5.375 L 4 -2.03125 L 9.84375 -2.03125 L 9.84375 0 L 1.59375 0 L 1.59375 -12.21875 L 9.703125 -12.21875 L 9.703125 -10.203125 L 4 -10.203125 L 4 -7.34375 L 8.984375 -7.34375 L 8.984375 -5.375 Z M 4 -5.375 "/></g></g></g><g fill="#5386e4" fill-opacity="1"><g transform="translate(67.564542, 20.685486)"><g><path d="M 5.421875 0.171875 C 4.566406 0.171875 3.8125 0.0664062 3.15625 -0.140625 C 2.5 -0.347656 1.945312 -0.617188 1.5 -0.953125 C 1.0625 -1.296875 0.726562 -1.671875 0.5 -2.078125 L 1.828125 -3.703125 L 2.03125 -3.703125 C 2.394531 -3.160156 2.859375 -2.726562 3.421875 -2.40625 C 3.992188 -2.082031 4.660156 -1.921875 5.421875 -1.921875 C 6.066406 -1.921875 6.550781 -2.054688 6.875 -2.328125 C 7.207031 -2.597656 7.375 -2.972656 7.375 -3.453125 C 7.375 -3.742188 7.320312 -3.984375 7.21875 -4.171875 C 7.113281 -4.367188 6.9375 -4.535156 6.6875 -4.671875 C 6.445312 -4.816406 6.113281 -4.941406 5.6875 -5.046875 L 4.125 -5.40625 C 3.019531 -5.65625 2.195312 -6.070312 1.65625 -6.65625 C 1.125 -7.238281 0.859375 -7.992188 0.859375 -8.921875 C 0.859375 -9.609375 1.03125 -10.210938 1.375 -10.734375 C 1.71875 -11.265625 2.21875 -11.675781 2.875 -11.96875 C 3.539062 -12.257812 4.335938 -12.40625 5.265625 -12.40625 C 6.203125 -12.40625 7.003906 -12.28125 7.671875 -12.03125 C 8.347656 -11.78125 8.914062 -11.398438 9.375 -10.890625 L 8.1875 -9.25 L 7.984375 -9.25 C 7.628906 -9.613281 7.226562 -9.882812 6.78125 -10.0625 C 6.34375 -10.238281 5.835938 -10.328125 5.265625 -10.328125 C 4.597656 -10.328125 4.09375 -10.210938 3.75 -9.984375 C 3.40625 -9.753906 3.234375 -9.429688 3.234375 -9.015625 C 3.234375 -8.628906 3.351562 -8.320312 3.59375 -8.09375 C 3.832031 -7.863281 4.25 -7.6875 4.84375 -7.5625 L 6.453125 -7.21875 C 7.640625 -6.96875 8.5 -6.539062 9.03125 -5.9375 C 9.570312 -5.34375 9.84375 -4.566406 9.84375 -3.609375 C 9.84375 -2.835938 9.675781 -2.171875 9.34375 -1.609375 C 9.019531 -1.046875 8.523438 -0.609375 7.859375 -0.296875 C 7.191406 0.015625 6.378906 0.171875 5.421875 0.171875 Z M 5.421875 0.171875 "/></g></g></g><g fill="#5386e4" fill-opacity="1"><g transform="translate(78.066675, 20.685486)"><g><path d="M 9.796875 -12.21875 L 9.796875 -10.1875 L 6.265625 -10.1875 L 6.265625 0 L 3.859375 0 L 3.859375 -10.1875 L 0.328125 -10.1875 L 0.328125 -12.21875 Z M 9.796875 -12.21875 "/></g></g></g></svg>